<svg width="889" height="180" viewBox="0 0 889 180" fill="none" xmlns="http://www.w3.org/2000/svg">
<g clip-path="url(#clip0_4_20)">
<path d="M131.491 0L117.882 31.3057H86.6818L94.8551 12.5066C96.471 8.78894 99.1286 5.62592 102.503 3.40466C105.877 1.1834 109.822 0.000253399 113.854 0L131.491 0Z" fill="#FFB715"/>
<path d="M180.985 29.2343L168.511 57.9312C166.895 61.6489 164.237 64.8119 160.863 67.0332C157.489 69.2544 153.544 70.4376 149.512 70.4378H124.191L141.202 31.3057H125.648L139.263 0H161.986C176.941 0 186.978 15.4468 180.985 29.2343Z" fill="#FFB715"/>
<path d="M88.2294 117.396L63.2506 174.863C62.5877 176.392 61.4959 177.694 60.109 178.607C58.7221 179.521 57.1005 180.008 55.4428 180.008H27.0137C26.4834 180.008 25.9614 179.875 25.4949 179.621C25.0284 179.367 24.6321 179 24.3417 178.554C24.0513 178.107 23.8759 177.595 23.8315 177.063C23.787 176.531 23.8749 175.997 24.0871 175.508L49.3484 117.396H88.2294Z" fill="#FFB715"/>
<path d="M107.684 144.194L122.737 109.57H52.7469L69.7571 70.4379H54.1778L39.4202 104.425C38.7584 105.953 37.6687 107.253 36.2843 108.166C34.8999 109.08 33.2809 109.568 31.6253 109.57H3.19624C2.6658 109.57 2.14379 109.437 1.67733 109.182C1.21088 108.928 0.814672 108.561 0.52449 108.114C0.234308 107.667 0.0592912 107.155 0.0152429 106.623C-0.0288053 106.091 0.0595025 105.556 0.272192 105.067L23.5012 51.6336C25.1187 47.9148 27.7787 44.7515 31.1554 42.5311C34.5322 40.3106 38.4791 39.1294 42.5127 39.1321H122.253L105.26 78.2643H143.522C158.476 78.2643 168.514 93.7084 162.52 107.499L146.842 143.56C146.18 145.088 145.088 146.388 143.703 147.301C142.317 148.215 140.696 148.701 139.04 148.702H110.608C110.077 148.703 109.554 148.57 109.086 148.316C108.619 148.062 108.222 147.694 107.931 147.246C107.641 146.798 107.466 146.285 107.423 145.752C107.38 145.219 107.47 144.683 107.684 144.194Z" fill="#FFB715"/>
<path d="M241.236 145.942C240.562 147.49 239.314 148.264 237.49 148.264H224.617C223.205 148.244 221.847 147.717 220.786 146.779C219.649 145.892 218.878 144.614 218.619 143.19L215.747 128.841C214.558 122.94 211.299 119.989 205.971 119.987H192.883L182.789 143.205C182.131 144.665 181.078 145.909 179.751 146.795C178.339 147.783 176.935 148.278 175.539 148.279H165.455C164.06 148.279 163.078 147.785 162.507 146.795C161.937 145.805 161.957 144.609 162.567 143.205L191.8 75.9841C192.457 74.5219 193.502 73.27 194.82 72.3657C196.225 71.3587 197.624 70.8552 199.016 70.8552H243.269C251.457 70.8552 257.208 73.0684 260.522 77.4946C263.837 81.9209 263.858 87.8951 260.585 95.4172C256.031 105.896 246.434 112.463 231.793 115.119C233.595 115.912 234.989 117.27 235.974 119.194C236.959 121.117 237.834 123.916 238.6 127.589L241.576 143.19C241.718 144.121 241.601 145.074 241.236 145.942V145.942ZM199.53 104.702H222.378C226.056 104.703 229.696 103.949 233.076 102.487C236.532 101.012 238.961 98.6556 240.363 95.4172C241.764 92.1788 241.386 89.8213 239.227 88.3447C237.064 86.8681 234.14 86.1307 230.455 86.1324H207.607L199.53 104.702Z" fill="#FFB715"/>
<path d="M244.966 143.297L280.783 91.9031C290.516 77.9043 305.44 70.8866 325.554 70.85H354.465C355.787 70.85 356.668 71.3535 357.107 72.3605C357.546 73.3675 357.475 74.5372 356.894 75.8694L327.565 143.297C326.914 144.747 325.857 145.976 324.525 146.834C323.106 147.787 321.701 148.264 320.31 148.264H310.223C308.758 148.264 307.759 147.787 307.227 146.834C306.694 145.881 306.749 144.664 307.39 143.182L313.306 129.58H275.169L265.66 143.182C264.625 144.694 263.256 145.944 261.66 146.834C259.994 147.787 258.464 148.264 257.07 148.264H246.504C245.109 148.264 244.284 147.859 244.028 147.048C243.767 146.359 243.782 145.595 244.069 144.917C244.327 144.355 244.627 143.813 244.966 143.297V143.297ZM285.789 114.31H319.957L332.213 86.1351H316.919C313.487 86.1351 310.066 87.1151 306.656 89.0752C303.241 91.0414 300.298 93.7423 298.04 96.9851L285.789 114.31Z" fill="#FFB715"/>
<path d="M350.263 139.141C346.401 132.77 347.369 122.918 353.169 109.586C358.969 96.2529 366.573 86.3924 375.981 80.0043C385.391 73.618 396.73 70.4239 409.999 70.4222H421.959C430.082 70.4222 436.337 72.5457 440.724 76.7929C445.112 81.04 445.704 86.8516 442.5 94.2276C441.577 96.3511 440.29 97.8721 438.638 98.7904C436.986 99.7087 435.572 100.171 434.397 100.178H428.015C424.731 100.178 423.036 98.1982 422.929 94.238C422.756 88.5543 419.593 85.7115 413.441 85.7098H403.894C396.064 85.7098 390.015 87.4012 385.748 90.7839C381.481 94.1667 377.363 100.428 373.394 109.567C369.419 118.709 368.086 124.979 369.396 128.379C370.706 131.78 375.276 133.48 383.107 133.48H393.782C399.93 133.48 405.547 130.637 410.631 124.952C414.191 120.951 417.635 118.951 420.961 118.951H427.343C429.023 118.951 430.082 119.581 430.519 120.84C430.956 122.099 430.852 123.467 430.208 124.944C426.999 132.321 421.364 138.124 413.304 142.352C405.244 146.58 397.158 148.697 389.046 148.702H375.957C362.69 148.702 354.126 145.515 350.263 139.141Z" fill="#FFB715"/>
<path d="M432.735 143.08L461.968 75.8746C462.623 74.4165 463.682 73.1799 465.019 72.3136C466.441 71.3396 467.85 70.8535 469.247 70.8552H531.09C532.484 70.8552 533.455 71.3587 534.001 72.3657C534.547 73.3727 534.514 74.5789 533.902 75.9841L531.696 81.0583C531.037 82.5172 529.985 83.7609 528.658 84.648C527.243 85.6359 525.839 86.1307 524.446 86.1324H477.729L470.895 101.84H511.124C512.519 101.84 513.493 102.335 514.046 103.324C514.599 104.314 514.569 105.511 513.958 106.914L511.752 111.988C511.093 113.445 510.041 114.686 508.716 115.57C507.301 116.562 505.896 117.056 504.501 117.055H464.27L457.343 132.968H503.954C505.313 132.968 506.263 133.454 506.806 134.427C507.348 135.399 507.315 136.586 506.705 137.988L504.449 143.19C503.787 144.654 502.724 145.899 501.385 146.779C499.951 147.767 498.537 148.262 497.144 148.264H435.576C434.182 148.264 433.199 147.769 432.629 146.779C432.059 145.79 432.094 144.557 432.735 143.08Z" fill="#FFB715"/>
<path d="M603.457 143.297L639.272 91.9031C649.008 77.9043 663.932 70.8866 684.045 70.85H712.956C714.278 70.85 715.159 71.3535 715.597 72.3605C716.036 73.3675 715.966 74.5372 715.385 75.8694L686.059 143.297C685.407 144.747 684.351 145.976 683.018 146.834C681.603 147.787 680.198 148.264 678.803 148.264H668.719C667.252 148.264 666.252 147.787 665.72 146.834C665.188 145.881 665.242 144.664 665.884 143.182L671.802 129.58H633.665L624.154 143.182C623.118 144.694 621.749 145.944 620.154 146.834C618.488 147.787 616.958 148.264 615.563 148.264H604.997C603.602 148.264 602.777 147.859 602.521 147.048C602.263 146.359 602.278 145.595 602.563 144.917C602.821 144.355 603.12 143.814 603.457 143.297V143.297ZM644.277 114.31H678.445L690.702 86.1351H675.407C671.975 86.1351 668.554 87.1151 665.142 89.0752C661.728 91.0421 658.786 93.743 656.528 96.9851L644.277 114.31Z" fill="#FFB715"/>
<path d="M787.351 143.08L816.583 75.8746C817.238 74.4165 818.298 73.1799 819.634 72.3136C821.057 71.3396 822.466 70.8535 823.862 70.8552H885.705C887.1 70.8552 888.07 71.3587 888.616 72.3657C889.162 73.3727 889.13 74.5789 888.518 75.9841L886.312 81.0583C885.653 82.5172 884.6 83.7609 883.274 84.648C881.858 85.6359 880.454 86.1307 879.061 86.1324H832.341L825.511 101.84H865.74C867.134 101.84 868.108 102.335 868.661 103.324C869.214 104.314 869.185 105.511 868.573 106.914L866.367 111.988C865.708 113.445 864.655 114.687 863.329 115.57C861.915 116.562 860.511 117.056 859.117 117.055H818.888L811.961 132.968H858.575C859.933 132.968 860.884 133.454 861.426 134.427C861.969 135.399 861.935 136.586 861.325 137.988L859.07 143.171C858.409 144.636 857.347 145.882 856.009 146.761C854.576 147.749 853.162 148.244 851.768 148.246H790.192C788.797 148.246 787.815 147.751 787.244 146.761C786.674 145.772 786.709 144.545 787.351 143.08Z" fill="#FFB715"/>
<path d="M514.588 143.08L543.724 76.0911C544.385 74.5936 545.439 73.3057 546.773 72.3658C548.155 71.3588 549.538 70.8553 550.92 70.8553H572.436C573.059 70.8295 573.679 70.9531 574.245 71.2157C574.811 71.4783 575.307 71.8725 575.692 72.3658C576.088 72.8708 576.373 73.4539 576.53 74.0773C576.688 74.7007 576.713 75.3504 576.604 75.9842L563.679 122.092L590.851 75.9946C591.954 74.5251 593.337 73.2915 594.918 72.3658C596.59 71.3588 598.114 70.8553 599.491 70.8553H621.007C622.381 70.8553 623.316 71.3588 623.814 72.3658C624.312 73.3728 624.238 74.6146 623.594 76.0911L594.457 143.08C593.798 144.577 592.737 145.858 591.393 146.779C589.993 147.767 588.611 148.262 587.245 148.264H577.724C576.342 148.264 575.385 147.769 574.855 146.779C574.324 145.79 574.375 144.557 575.007 143.08L597.946 90.3431L564.664 143.406C563.526 144.792 562.143 145.955 560.584 146.834C558.932 147.787 557.42 148.264 556.048 148.264H548.486C547.104 148.264 546.015 147.787 545.22 146.834C544.419 145.881 544.015 144.652 544.092 143.406L557.054 90.3431L534.115 143.08C533.456 144.577 532.395 145.858 531.051 146.779C529.651 147.767 528.264 148.262 526.89 148.264H517.369C515.995 148.264 515.03 147.769 514.474 146.779C513.917 145.79 513.955 144.557 514.588 143.08Z" fill="#FFB715"/>
<path d="M721.873 81.0583L724.079 75.9841C724.731 74.4971 725.786 73.2249 727.123 72.3135C728.364 71.3898 729.861 70.8799 731.405 70.8552H804.942C806.409 70.8552 807.414 71.3413 807.956 72.3135C808.499 73.2858 808.449 74.5093 807.806 75.9841L805.6 81.0583C804.955 82.5414 803.903 83.8085 802.567 84.7106C801.325 85.6194 799.833 86.1196 798.298 86.1428H771.642L746.777 143.307C746.131 144.753 745.086 145.981 743.765 146.845C742.365 147.798 740.969 148.274 739.576 148.274H729.437C728.043 148.274 727.061 147.798 726.493 146.845C725.924 145.892 725.945 144.712 726.555 143.307L751.42 86.1428H724.761C723.297 86.1428 722.289 85.6654 721.736 84.7106C721.183 83.7558 721.229 82.5383 721.873 81.0583Z" fill="#FFB715"/>
</g>
<defs>
<clipPath id="clip0_4_20">
<rect width="889" height="180" fill="white"/>
</clipPath>
</defs>
</svg>
