<svg width="15" height="16" viewBox="0 0 15 16" fill="none" xmlns="http://www.w3.org/2000/svg">
<g clip-path="url(#clip0_9_14)">
<path d="M7.5 0.5C3.32386 0.5 0 3.86648 0 8C0 12.1761 3.32386 15.5 7.5 15.5C11.6335 15.5 15 12.1761 15 8C15 3.86648 11.6335 0.5 7.5 0.5ZM11.4205 7.23295L9.80114 8.80966L10.1847 11.0256C10.2699 11.4091 9.84375 11.7074 9.46023 11.5369L7.5 10.4716L5.49716 11.5369C5.11364 11.7074 4.6875 11.4091 4.77273 11.0256L5.15625 8.80966L3.53693 7.23295C3.23864 6.93466 3.40909 6.46591 3.79261 6.38068L6.05114 6.08239L7.03125 4.03693C7.11648 3.86648 7.28693 3.78125 7.45739 3.78125C7.67045 3.78125 7.84091 3.86648 7.92614 4.03693L8.90625 6.08239L11.1648 6.38068C11.5483 6.46591 11.7188 6.93466 11.4205 7.23295Z" fill="#1C325F"/>
</g>
<defs>
<clipPath id="clip0_9_14">
<rect width="15" height="16" fill="white"/>
</clipPath>
</defs>
</svg>
